<svg width="36" height="48" viewBox="0 0 36 48" fill="none" xmlns="http://www.w3.org/2000/svg">
<path d="M20.3506 34.3013C15.5027 29.4011 14.0218 26.1756 10.9906 20.5733C9.68228 18.1553 9.74269 16.5953 10.9906 15.7373L14.3446 14.0992C15.8479 13.2556 16.0121 12.5646 15.2026 10.9792L9.19658 1.46322C8.10469 -0.486778 6.93469 -0.174773 5.92057 0.605219L2.64467 3.17923C-0.553313 6.53324 -2.70124 15.5023 7.55857 32.1173C15.4347 42.4641 23.5486 48.9841 30.1786 47.7953L33.2281 46.6441C35.1781 45.4741 36.1141 44.7721 35.0146 42.7253L29.1646 33.1313C27.1742 30.9789 26.542 32.013 25.6547 32.5853L23.5486 34.3013C22.2227 35.2373 21.7547 35.7205 20.3506 34.3013Z" fill="url(#paint0_linear)"/>
<defs>
<linearGradient id="paint0_linear" x1="17.7413" y1="0" x2="17.7413" y2="47.9346" gradientUnits="userSpaceOnUse">
<stop stop-color="#7F2321"/>
<stop offset="1" stop-color="#5E1210"/>
</linearGradient>
</defs>
</svg>
